<svg width="75" height="75" viewBox="0 0 75 75" fill="none" xmlns="http://www.w3.org/2000/svg">
<circle cx="37.5" cy="37.5" r="37.5" fill="#C9FA75"/>
<path d="M25.3174 59.4296V40.1331C25.3174 37.6942 25.5196 35.2281 26.401 32.9541C28.1656 28.4015 31.0982 25.5731 37.2492 25.5731V49.2876C42.2799 49.2876 46.2531 47.8774 48.1255 41.7193C48.637 40.0371 48.7335 38.2613 48.7335 36.5031V16.7734" stroke="black" stroke-width="5.9659"/>
<path d="M63.2016 34.6604C62.0493 28.2698 58.451 21.4648 53.3155 17.4905C48.1801 13.5162 41.7538 11.5865 35.2785 12.0742C28.8032 12.5619 22.7384 15.4324 18.2562 20.131C13.774 24.8296 11.1924 31.0229 11.0103 37.514C10.8283 44.0051 13.0586 50.3333 17.2704 55.2758C21.4823 60.2183 27.3766 63.4242 33.8144 64.2741C40.2522 65.124 46.7765 63.5575 52.1266 59.8774C57.4768 56.1972 61.6929 49.0403 63.2016 42.7244L56.9256 42.9498C55.763 47.8172 52.8375 52.0808 48.7145 54.9169C44.5915 57.753 39.5636 58.9601 34.6024 58.3052C29.6411 57.6502 25.0988 55.1796 21.853 51.3707C18.6072 47.5619 16.8884 42.6851 17.0287 37.6828C17.169 32.6805 19.1585 27.9078 22.6127 24.2868C26.0668 20.6659 30.7406 18.4538 35.7307 18.0779C40.7208 17.7021 45.6731 19.1892 49.6307 22.2519C53.5883 25.3146 56.2702 29.7356 57.1581 34.6604L63.2016 34.6604Z" fill="black"/>
</svg>
